<svg xmlns="http://www.w3.org/2000/svg" viewBox="0 0 32 32" width="32" height="32">
	<style>
		tspan { white-space:pre }
		.shp0 { fill: #454545 } 
	</style>
	<path id="Layer" class="shp0" d="M16 0.4C7.16 0.4 0 7.56 0 16.39C0 23.46 4.58 29.46 10.94 31.58C11.74 31.72 12.04 31.23 12.04 30.81C12.04 30.43 12.02 29.16 12.01 27.83C7.56 28.8 6.62 25.94 6.62 25.94C5.89 24.09 4.85 23.6 4.85 23.6C3.39 22.61 4.96 22.63 4.96 22.63C6.56 22.74 7.41 24.27 7.41 24.27C8.84 26.72 11.15 26.01 12.06 25.6C12.21 24.57 12.62 23.86 13.08 23.46C9.53 23.06 5.79 21.69 5.79 15.56C5.79 13.81 6.42 12.38 7.44 11.26C7.27 10.86 6.73 9.23 7.59 7.03C7.59 7.03 8.94 6.6 12 8.67C13.27 8.31 14.64 8.14 16 8.13C17.36 8.14 18.73 8.31 20.01 8.67C23.06 6.6 24.4 7.03 24.4 7.03C25.27 9.23 24.73 10.86 24.56 11.26C25.59 12.38 26.21 13.81 26.21 15.56C26.21 21.7 22.46 23.06 18.9 23.45C19.48 23.95 19.99 24.92 19.99 26.42C19.99 28.56 19.97 30.28 19.97 30.81C19.97 31.23 20.26 31.73 21.07 31.57C27.42 29.46 32 23.46 32 16.39C32 7.56 24.84 0.39 16 0.39L16 0.4Z" />
</svg>