<svg xmlns="http://www.w3.org/2000/svg" viewBox="0 0 32 32" width="32" height="32">
	<style>
		tspan { white-space:pre }
		.shp0 { fill: #454545 } 
	</style>
	<path id="Layer" fill-rule="evenodd" class="shp0" d="M16 0C20.35 0 20.89 0.02 22.6 0.1C24.3 0.17 25.46 0.45 26.48 0.84C27.53 1.25 28.43 1.8 29.31 2.69C30.21 3.57 30.75 4.47 31.14 5.53C31.54 6.54 31.81 7.71 31.89 9.41C31.96 11.12 31.98 11.66 31.98 16.01C31.98 20.35 31.96 20.89 31.89 22.6C31.81 24.3 31.54 25.46 31.14 26.48C30.74 27.53 30.19 28.42 29.3 29.31C28.41 30.2 27.52 30.75 26.47 31.16C25.46 31.55 24.29 31.83 22.59 31.9C20.88 31.98 20.34 31.99 15.99 31.99C11.65 31.99 11.11 31.98 9.4 31.9C7.7 31.83 6.54 31.55 5.52 31.16C4.47 30.75 3.57 30.2 2.69 29.31C1.79 28.43 1.25 27.53 0.84 26.48C0.44 25.46 0.17 24.29 0.09 22.59C0.02 20.89 0 20.34 0 16C0 11.66 0.02 11.11 0.09 9.4C0.17 7.7 0.44 6.54 0.84 5.52C1.25 4.47 1.79 3.58 2.69 2.69C3.57 1.79 4.47 1.25 5.52 0.84C6.54 0.44 7.71 0.17 9.41 0.09C11.11 0.02 11.66 0 16 0L16 0ZM16 2.88C11.72 2.88 11.22 2.9 9.54 2.98C7.98 3.04 7.13 3.31 6.57 3.53C5.82 3.82 5.29 4.16 4.73 4.73C4.17 5.28 3.82 5.82 3.53 6.56C3.32 7.13 3.05 7.97 2.98 9.53C2.91 11.21 2.89 11.73 2.89 16C2.89 20.26 2.91 20.77 2.98 22.46C3.05 24.01 3.32 24.86 3.53 25.43C3.83 26.17 4.17 26.7 4.73 27.26C5.29 27.82 5.83 28.17 6.57 28.46C7.14 28.68 7.98 28.94 9.54 29.01C11.22 29.08 11.74 29.1 16 29.1C20.27 29.1 20.78 29.08 22.47 29.01C24.02 28.94 24.87 28.68 25.44 28.46C26.18 28.16 26.71 27.82 27.27 27.26C27.83 26.7 28.18 26.17 28.47 25.42C28.69 24.86 28.95 24.02 29.02 22.45C29.09 20.77 29.11 20.26 29.11 15.99C29.11 11.72 29.09 11.21 29.02 9.53C28.95 7.97 28.69 7.12 28.47 6.56C28.17 5.81 27.83 5.28 27.27 4.72C26.71 4.16 26.18 3.81 25.43 3.52C24.87 3.31 24.02 3.04 22.46 2.97C20.78 2.9 20.27 2.88 16 2.88L16 2.88Z" />
	<path id="Layer" fill-rule="evenodd" class="shp0" d="M16 7.78C20.54 7.78 24.22 11.46 24.22 16C24.22 20.54 20.54 24.22 16 24.22C11.46 24.22 7.78 20.54 7.78 16C7.78 11.46 11.46 7.78 16 7.78ZM21.33 16C21.33 13.06 18.94 10.67 16 10.67C13.06 10.67 10.67 13.06 10.67 16C10.67 18.94 13.06 21.33 16 21.33C18.94 21.33 21.33 18.94 21.33 16Z" />
	<path id="Layer" class="shp0" d="M26.46 7.46C26.46 8.52 25.6 9.38 24.54 9.38C23.48 9.38 22.62 8.52 22.62 7.46C22.62 6.4 23.48 5.54 24.54 5.54C25.6 5.54 26.46 6.4 26.46 7.46L26.46 7.46Z" />
</svg>