<svg xmlns="http://www.w3.org/2000/svg" viewBox="0 0 24 24" width="24" height="24">
	<style>
		tspan { white-space:pre }
		.shp0 { fill: #454545 } 
	</style>
	<path id="Layer" fill-rule="evenodd" class="shp0" d="M24 4.5L24 19.5C24 21.98 21.98 24 19.5 24L4.5 24C2.02 24 0 21.98 0 19.5L0 4.5C0 2.02 2.02 0 4.5 0L19.5 0C21.98 0 24 2.02 24 4.5ZM5.53 4.03C4.3 4.03 3.48 4.84 3.48 5.91C3.48 6.94 4.26 7.78 5.48 7.78L5.5 7.78C6.77 7.78 7.55 6.94 7.55 5.91C7.53 4.84 6.77 4.03 5.53 4.03ZM20.3 20.09L20.3 13.88C20.3 10.55 18.52 9 16.14 9C14.25 9 13.38 10.03 12.91 10.78L12.91 9.25L9.3 9.25C9.3 9.25 9.34 10.27 9.3 20.09L12.91 20.09L12.91 14.03C12.91 13.72 12.92 13.39 13.01 13.16C13.28 12.52 13.87 11.84 14.87 11.84C16.17 11.84 16.69 12.83 16.69 14.3L16.69 20.09L20.3 20.09ZM12.91 10.78L12.91 10.83L12.87 10.83C12.89 10.81 12.9 10.8 12.91 10.78ZM7.31 20.09L7.31 9.25L3.7 9.25L3.7 20.09L7.31 20.09Z" />
</svg>